<svg xmlns="http://www.w3.org/2000/svg" width="351" height="54" viewBox="0 0 351 54" fill="none"><path fill-rule="evenodd" clip-rule="evenodd" d="M67.0897 53.9202L80.5757 30.7091L73.8528 19.1449L84.7724 14.0225L94.4928 30.7064L80.97 54H93.4166L106.927 30.7315L106.914 30.7092L106.927 30.687L89.0921 0L53.4639 16.7805L17.8345 0L0 30.687L0.0128141 30.7092L0 30.7315L13.5105 54H25.9571L12.434 30.7064L22.1545 14.0225L33.0744 19.1449L26.3514 30.6868L39.8975 53.9887L67.0897 53.9202Z" fill="url(#paint0_linear)"></path><path fill-rule="evenodd" clip-rule="evenodd" d="M41.8418 35.5089C41.8418 29.1181 47.0633 23.9375 53.5044 23.9375C59.9455 23.9375 65.1669 29.1181 65.1669 35.5089C65.1669 41.8997 59.9455 47.0804 53.5044 47.0804C47.0633 47.0804 41.8418 41.8997 41.8418 35.5089Z" fill="white"></path><path fill-rule="evenodd" clip-rule="evenodd" d="M48.3323 30.6847C48.3323 30.6847 48.3317 40.3723 48.3323 40.3916C48.3456 40.7346 48.452 41.0678 48.6404 41.356C48.8288 41.6443 49.0921 41.8771 49.4028 42.0299C49.7135 42.1827 50.06 42.2498 50.406 42.2243C50.7519 42.1988 51.0846 42.0816 51.3689 41.8849L59.475 37.1164C59.8002 36.9705 60.0775 36.7373 60.2755 36.4432C60.4735 36.1491 60.5841 35.806 60.5949 35.4528C60.6057 35.0996 60.5161 34.7505 60.3364 34.4452C60.1567 34.1398 59.8941 33.8905 59.5784 33.7254L59.5766 33.7242L59.5743 33.723L59.5714 33.7213L59.5684 33.7197L59.5656 33.7179L59.5626 33.7162L59.5597 33.7144L59.5568 33.7127L59.5532 33.711L59.5498 33.7093L59.5463 33.7076L59.5434 33.7058L59.5399 33.7041L59.5369 33.7024L59.5334 33.7007L59.5293 33.6984L59.5264 33.6966L51.4079 29.1338L51.3888 29.1487C51.1016 28.9441 50.763 28.8217 50.4101 28.7947C50.0572 28.7678 49.7036 28.8374 49.3881 28.996C49.0725 29.1546 48.8071 29.396 48.6209 29.6938C48.4347 29.9917 48.3348 30.3344 48.3323 30.6847Z" fill="url(#paint1_linear)"></path><path fill-rule="evenodd" clip-rule="evenodd" d="M126.086 40.87C126.832 41.2737 127.636 41.5595 128.471 41.7173C128.728 41.8024 128.994 41.8564 129.265 41.8783L129.803 41.9344L131.18 41.9903C134.422 41.9903 137.215 40.7807 139.56 38.3614C141.904 35.9421 143.076 32.9878 143.077 29.4983C143.077 27.676 142.769 26.0147 142.152 24.5144C141.548 23.0319 140.654 21.6819 139.522 20.542C137.182 18.1858 134.399 17.0071 131.171 17.0059C129.206 17.0059 127.327 17.5252 125.532 18.5639C123.738 19.6026 122.405 20.8455 121.533 22.2926V51.1773H126.086V40.87ZM128.064 36.4673C127.325 36.0287 126.658 35.4809 126.086 34.8428V24.1538C126.733 23.4259 127.528 22.8408 128.418 22.4365C129.28 22.0357 130.221 21.8266 131.173 21.8238C133.232 21.8238 134.971 22.597 136.391 24.1433C137.812 25.689 138.523 27.474 138.524 29.4983C138.524 31.634 137.802 33.447 136.357 34.9373C134.911 36.4288 133.183 37.1739 131.173 37.1728C129.996 37.1728 128.959 36.9376 128.064 36.4673Z" fill="black"></path><path fill-rule="evenodd" clip-rule="evenodd" d="M145.52 12.5255H147.851V41.5429H152.405V7.70801H145.52V12.5255Z" fill="black"></path><path fill-rule="evenodd" clip-rule="evenodd" d="M171.861 41.233C172.801 40.8326 173.712 40.3657 174.585 39.836L175.078 39.4334L175.548 39.078L177.894 41.543L180.845 38.2608L177.613 34.8913V22.2848C176.672 20.746 175.286 19.4816 173.457 18.4913C171.624 17.5023 169.746 17.0074 167.821 17.0068C164.534 17.0068 161.717 18.2719 159.368 20.8019C157.019 23.3315 155.845 26.2304 155.846 29.4987C155.837 31.1047 156.14 32.6973 156.738 34.1903C157.35 35.6961 158.225 37.0838 159.322 38.2901C161.685 40.7584 164.518 41.992 167.823 41.9907C169.136 41.9907 170.482 41.7381 171.861 41.2328V41.233ZM170.792 36.5502C169.91 36.9668 168.91 37.1745 167.793 37.1734C165.808 37.1734 164.079 36.4043 162.607 34.8661C161.135 33.3292 160.4 31.5401 160.4 29.4989C160.4 27.4122 161.112 25.6115 162.537 24.0966C163.962 22.5818 165.714 21.8244 167.793 21.8245C168.301 21.8221 168.807 21.8773 169.302 21.9889C169.806 22.1093 170.297 22.2752 170.769 22.4843C171.615 22.9208 172.388 23.4842 173.06 24.1544V34.8434C172.432 35.5626 171.66 36.144 170.792 36.5502Z" fill="black"></path><path fill-rule="evenodd" clip-rule="evenodd" d="M188.162 17.4551H183.609V29.4868C183.609 32.9319 184.788 35.8775 187.144 38.3236C189.501 40.7698 192.315 41.9922 195.585 41.991C196.547 41.9912 197.505 41.8766 198.439 41.6498C199.27 41.4598 200.072 41.1601 200.823 40.7587C200.827 41.2864 200.759 41.8122 200.621 42.322C200.465 42.8506 200.246 43.3594 199.971 43.8382C199.215 45.1231 198.017 46.4792 196.377 47.9065L199.681 51.1503C200.494 50.4147 201.254 49.6226 201.954 48.7801C202.56 48.0219 203.108 47.2209 203.596 46.3835C204.782 44.3389 205.375 42.3573 205.376 40.4386V17.4553H200.823V34.8386C200.471 35.1721 200.102 35.487 199.717 35.7822L198.681 36.4422C197.713 36.9328 196.639 37.1838 195.551 37.1739C193.51 37.1739 191.768 36.4269 190.326 34.9331C188.883 33.4399 188.161 31.624 188.162 29.4854V17.4551Z" fill="black"></path><path fill-rule="evenodd" clip-rule="evenodd" d="M350.796 12.4131C350.796 9.28071 348.298 6.71389 345.192 6.71389C344.435 6.71159 343.685 6.85741 342.985 7.14296C342.285 7.42852 341.649 7.84818 341.114 8.37781C340.578 8.90745 340.154 9.53661 339.865 10.2291C339.576 10.9216 339.428 11.6638 339.43 12.4131C339.43 15.5697 342.014 18.1906 345.162 18.1906C348.283 18.1906 350.796 15.5694 350.796 12.4131ZM349.594 12.4131C349.594 14.9035 347.658 17.0852 345.162 17.0852C342.682 17.0852 340.631 14.8883 340.631 12.4131C340.631 9.89777 342.666 7.81934 345.177 7.81934C347.658 7.81934 349.594 9.92783 349.594 12.4131ZM347.777 15.5377C347.399 14.4655 347.986 13.0322 346.704 12.4994C347.34 12.2114 347.702 11.7057 347.702 10.9673C347.702 9.62688 346.56 9.1603 345.407 9.1603H342.744V15.5377H344.278V13.0609H344.918C345.635 13.0609 345.986 13.3027 346.078 13.9973C346.123 14.3597 346.154 15.2658 346.285 15.5377H347.777ZM346.169 11.0878C346.169 11.7811 345.787 12.0674 345.116 12.0674H344.278V10.2586H345.147C345.726 10.2586 346.169 10.4244 346.169 11.0875V11.0878Z" fill="#27ED71"></path><path fill-rule="evenodd" clip-rule="evenodd" d="M235.645 17.0769C235.317 17.1242 235.02 17.1784 234.755 17.2397C234.123 17.406 233.511 17.6415 232.931 17.9417C232.057 18.4324 231.247 19.028 230.521 19.7151L229.68 20.6727C228.733 19.4893 227.828 18.6491 226.964 18.1519C225.72 17.3886 224.327 17.007 222.783 17.007C222.178 17.0144 221.576 17.0926 220.99 17.2399C220.364 17.3887 219.754 17.5999 219.171 17.87C218.333 18.324 217.555 18.8797 216.856 19.5244L216.077 20.3646L213.281 17.4341L210.348 20.7374L213.568 24.1581V41.5428H218.121V26.6365C218.102 25.3792 218.581 24.1644 219.454 23.2509C220.343 22.3003 221.453 21.8248 222.785 21.8242C224.816 21.8242 226.236 22.7835 227.045 24.7021C227.302 25.316 227.439 25.9723 227.449 26.6365V41.5428H232.002V26.6365C231.983 25.3819 232.455 24.1685 233.32 23.2509C234.198 22.3003 235.295 21.8248 236.612 21.8242C238.617 21.8242 240.02 22.7835 240.821 24.7021C241.075 25.3166 241.21 25.9727 241.22 26.6365V41.5428H245.773V26.6332C245.769 25.9661 245.69 25.3016 245.539 24.6516C245.388 23.9809 245.201 23.3188 244.979 22.6681C244.245 20.9859 243.301 19.6887 242.147 18.7767C240.65 17.5967 238.802 17.0068 236.603 17.0068C236.282 17.008 235.962 17.0314 235.645 17.0769Z" fill="#27ED71"></path><path fill-rule="evenodd" clip-rule="evenodd" d="M265.118 41.233C266.058 40.8326 266.969 40.3657 267.842 39.836L268.335 39.4334L268.805 39.078L271.151 41.543L274.103 38.2608L270.87 34.8913V22.2848C269.93 20.746 268.545 19.4816 266.714 18.4913C264.882 17.5023 263.003 17.0074 261.078 17.0068C257.792 17.0068 254.975 18.2719 252.626 20.8019C250.278 23.332 249.103 26.2309 249.104 29.4987C249.095 31.1046 249.398 32.6973 249.995 34.1903C250.607 35.6959 251.482 37.0835 252.579 38.2901C254.943 40.7584 257.776 41.992 261.08 41.9907C262.394 41.9907 263.739 41.7381 265.118 41.2328V41.233ZM264.049 36.5502C263.168 36.9668 262.168 37.1745 261.05 37.1734C259.065 37.1734 257.337 36.4043 255.864 34.8661C254.392 33.3292 253.657 31.5401 253.657 29.4989C253.657 27.4122 254.369 25.6115 255.795 24.0966C257.219 22.5824 258.97 21.825 261.05 21.8245C261.558 21.8221 262.065 21.8773 262.56 21.9889C263.063 22.1092 263.554 22.275 264.026 22.4843C264.872 22.9206 265.645 23.484 266.317 24.1544V34.8434C265.689 35.5626 264.917 36.144 264.049 36.5502Z" fill="#27ED71"></path><path fill-rule="evenodd" clip-rule="evenodd" d="M284.864 7.70801H280.31V17.4551H275.757V22.2727H280.31V41.5429H284.864V22.2727H289.417V17.4551H284.864V7.70801Z" fill="#27ED71"></path><path fill-rule="evenodd" clip-rule="evenodd" d="M309.362 34.5968C308.313 35.6437 307.337 36.3544 306.432 36.729C305.683 37.0267 304.825 37.1749 303.856 37.1737C301.918 37.1737 300.211 36.4128 298.735 34.8909C297.26 33.368 296.523 31.5707 296.523 29.4992C296.523 27.4277 297.272 25.631 298.772 24.1092C300.271 22.5862 301.966 21.8247 303.856 21.8247C304.165 21.8221 304.474 21.8379 304.781 21.872C305.057 21.9064 305.33 21.9568 305.6 22.0227C305.866 22.0868 306.128 22.1645 306.386 22.2556C306.611 22.3369 306.83 22.434 307.042 22.5461C307.698 22.9173 308.393 23.4904 309.128 24.2653L312.572 20.9264C311.477 19.6835 310.251 18.7545 308.893 18.1395C308.146 17.7298 307.34 17.4352 306.502 17.2659C305.768 17.0945 304.886 17.0081 303.856 17.0068C300.621 17.0068 297.832 18.2054 295.487 20.6025C293.141 22.9991 291.969 25.9645 291.97 29.4989C291.97 33.0193 293.154 35.9813 295.522 38.3848C297.89 40.7901 300.668 41.9921 303.856 41.9909C305.548 42.0058 307.222 41.6426 308.752 40.9284C310.314 40.1722 311.587 39.2116 312.572 38.0466L309.362 34.5963V34.5968Z" fill="#27ED71"></path><path fill-rule="evenodd" clip-rule="evenodd" d="M321.844 7.70801H314.959V12.5255H317.291V41.5429H321.844V24.1598C322.135 23.8173 322.456 23.5015 322.804 23.2163C323.999 22.3234 325.454 21.8353 326.951 21.8242C328.87 21.8242 330.571 22.5693 332.056 24.0596C333.539 25.5511 334.281 27.3786 334.282 29.5424V41.5429H338.835V29.5341C338.835 26.0014 337.64 23.0306 335.249 20.6219C332.857 18.2131 330.076 17.0082 326.906 17.007C325.032 17.007 323.345 17.4166 321.844 18.2359V7.70801Z" fill="#27ED71"></path><defs><linearGradient id="paint0_linear" x1="175.632" y1="-16.0493" x2="175.632" y2="73.2414" gradientUnits="userSpaceOnUse"><stop stop-color="#11E25F"></stop><stop offset="1" stop-color="#4DFF8F"></stop></linearGradient><linearGradient id="paint1_linear" x1="175.63" y1="-16.0495" x2="175.63" y2="73.2413" gradientUnits="userSpaceOnUse"><stop stop-color="#11E25F"></stop><stop offset="1" stop-color="#4DFF8F"></stop></linearGradient></defs></svg>